HIERARCHY
ROOT joint_0
{
	OFFSET 0.000000 0.000000 0.000000
	CHANNELS 6 Xposition Yposition Zposition Zrotation Yrotation Xrotation 
	JOINT joint_1
	{
		OFFSET 5.091736 1.614004 124.993042
		CHANNELS 3 Zrotation Yrotation Xrotation
		JOINT joint_2
		{
			OFFSET -7.754517 4.363039 113.797974
			CHANNELS 3 Zrotation Yrotation Xrotation
			JOINT joint_3
			{
				OFFSET -8.706238 5.370684 113.558960
				CHANNELS 3 Zrotation Yrotation Xrotation
				JOINT joint_4
				{
					OFFSET 2.800659 5.843341 158.209106
					CHANNELS 3 Zrotation Yrotation Xrotation
					JOINT joint_5
					{
						OFFSET 20.525452 8.617594 92.185913
						CHANNELS 3 Zrotation Yrotation Xrotation
						End Site
						{
							OFFSET 0.000000 0.000000 0.000000
						}
					}
				}
				JOINT joint_6
				{
					OFFSET -4.183167 -30.671114 90.057007
					CHANNELS 3 Zrotation Yrotation Xrotation
					JOINT joint_7
					{
						OFFSET -24.729675 -138.200195 -6.097900
						CHANNELS 3 Zrotation Yrotation Xrotation
						JOINT joint_8
						{
							OFFSET 16.966858 -51.567780 -315.633057
							CHANNELS 3 Zrotation Yrotation Xrotation
							JOINT joint_9
							{
								OFFSET 129.835388 -40.459091 176.646973
								CHANNELS 3 Zrotation Yrotation Xrotation
								End Site
								{
									OFFSET 0.000000 0.000000 0.000000
								}
							}
						}
					}
				}
				JOINT joint_10
				{
					OFFSET 7.338745 37.199406 87.346069
					CHANNELS 3 Zrotation Yrotation Xrotation
					JOINT joint_11
					{
						OFFSET 20.327698 137.488367 -20.779053
						CHANNELS 3 Zrotation Yrotation Xrotation
						JOINT joint_12
						{
							OFFSET 150.763062 48.206573 -278.419922
							CHANNELS 3 Zrotation Yrotation Xrotation
							JOINT joint_13
							{
								OFFSET 12.571289 -162.355251 152.253906
								CHANNELS 3 Zrotation Yrotation Xrotation
								End Site
								{
									OFFSET 0.000000 0.000000 0.000000
								}
							}
						}
					}
				}
			}
		}
	}
	JOINT joint_14
	{
		OFFSET -7.600342 -77.970001 -95.010986
		CHANNELS 3 Zrotation Yrotation Xrotation
		JOINT joint_15
		{
			OFFSET -2.666199 -21.455009 -443.700989
			CHANNELS 3 Zrotation Yrotation Xrotation
			JOINT joint_16
			{
				OFFSET -22.487976 -19.310196 -481.059006
				CHANNELS 3 Zrotation Yrotation Xrotation
				JOINT joint_17
				{
					OFFSET 177.776611 65.723053 -82.445997
					CHANNELS 3 Zrotation Yrotation Xrotation
					End Site
					{
						OFFSET 0.000000 0.000000 0.000000
					}
				}
			}
		}
	}
	JOINT joint_18
	{
		OFFSET 17.063904 75.900681 -95.447021
		CHANNELS 3 Zrotation Yrotation Xrotation
		JOINT joint_19
		{
			OFFSET -21.510803 8.101997 -443.629944
			CHANNELS 3 Zrotation Yrotation Xrotation
			JOINT joint_20
			{
				OFFSET -7.473022 -28.501774 -481.230011
				CHANNELS 3 Zrotation Yrotation Xrotation
				JOINT joint_21
				{
					OFFSET 177.760559 -64.115177 -83.737001
					CHANNELS 3 Zrotation Yrotation Xrotation
					End Site
					{
						OFFSET 0.000000 0.000000 0.000000
					}
				}
			}
		}
	}
}
MOTION
Frames: 7
Frame Time: 0.016667
1151.326782 -76.548073 1119.005005 15.089745 0.507777 1.859410 -0.071318 2.185251 2.264372 -0.097481 -0.213263 -0.400138 -0.054674 0.523249 0.406918 -0.568770 -9.403419 3.319590 0.000000 0.000000 0.000000 3.610844 -1.823339 4.157331 10.829198 -0.713563 -2.138153 179.215078 38.328274 179.902260 0.000000 0.000000 0.000000 -6.592486 16.821263 -1.210509 -19.765972 4.335709 1.227665 53.366640 -19.384794 114.508726 0.000000 0.000000 0.000000 -8.773488 3.553637 -5.418585 -8.416824 -2.271489 0.595354 -8.245886 -3.791830 -2.375369 0.000000 0.000000 0.000000 -0.255368 -2.675672 2.338011 -0.189604 2.403721 3.388175 0.257810 -2.671723 -0.839435 0.000000 0.000000 0.000000 
1151.152100 -76.531433 1119.017944 15.073591 0.510535 1.851962 -0.057558 2.234955 2.252311 -0.079145 -0.217796 -0.396442 -0.037581 0.535448 0.404343 -0.552399 -9.343550 3.262504 0.000000 0.000000 0.000000 3.631065 -1.848362 4.150829 10.814318 -0.683272 -2.131332 179.231379 38.355219 179.913668 0.000000 0.000000 0.000000 -6.594328 16.898915 -1.198120 -19.882534 4.337617 1.233382 53.113990 -19.490926 114.623113 0.000000 0.000000 0.000000 -8.765443 3.527008 -5.404007 -8.411718 -2.252618 0.576665 -8.240916 -3.790627 -2.373583 0.000000 0.000000 0.000000 -0.249834 -2.683296 2.342787 -0.183685 2.402009 3.390048 0.264159 -2.679505 -0.839328 0.000000 0.000000 0.000000 
1150.965210 -76.524658 1119.035034 15.061668 0.516493 1.844411 -0.047246 2.282141 2.242442 -0.064645 -0.221308 -0.395096 -0.023962 0.546962 0.403022 -0.537134 -9.285777 3.211157 0.000000 0.000000 0.000000 3.647021 -1.875742 4.143607 10.769766 -0.649499 -2.125687 179.224770 38.362908 179.919979 0.000000 0.000000 0.000000 -6.600145 16.980312 -1.185530 -20.015616 4.339979 1.239326 52.839602 -19.596353 114.750891 0.000000 0.000000 0.000000 -8.758519 3.495932 -5.388687 -8.407994 -2.232289 0.558843 -8.237190 -3.788912 -2.372574 0.000000 0.000000 0.000000 -0.246098 -2.695724 2.345121 -0.179915 2.399392 3.397423 0.268378 -2.683845 -0.838962 0.000000 0.000000 0.000000 
1150.767578 -76.529472 1119.057007 15.057042 0.525051 1.837952 -0.043089 2.327533 2.230852 -0.056174 -0.226227 -0.393576 -0.016405 0.558014 0.402403 -0.523234 -9.230654 3.166767 0.000000 0.000000 0.000000 3.665963 -1.908890 4.135123 10.686909 -0.614169 -2.119922 179.188109 38.342293 179.915805 0.000000 0.000000 0.000000 -6.610252 17.065566 -1.171311 -20.170495 4.341674 1.249161 52.539915 -19.694272 114.893641 0.000000 0.000000 0.000000 -8.753992 3.462268 -5.374399 -8.406720 -2.212263 0.543552 -8.235779 -3.785804 -2.373159 0.000000 0.000000 0.000000 -0.245640 -2.715355 2.342370 -0.179916 2.400544 3.413178 0.269343 -2.684911 -0.838912 0.000000 0.000000 0.000000 
1150.558228 -76.546104 1119.083984 15.057915 0.537041 1.831743 -0.043973 2.370879 2.219754 -0.052818 -0.231417 -0.392389 -0.013924 0.567879 0.401632 -0.510737 -9.177641 3.129603 0.000000 0.000000 0.000000 3.684772 -1.946815 4.126778 10.567245 -0.575656 -2.115540 179.122731 38.296796 179.904461 0.000000 0.000000 0.000000 -6.623582 17.156538 -1.155490 -20.348878 4.342958 1.261087 52.211230 -19.788590 115.053889 0.000000 0.000000 0.000000 -8.750890 3.424174 -5.359545 -8.407115 -2.191134 0.529123 -8.235927 -3.781466 -2.374933 0.000000 0.000000 0.000000 -0.247798 -2.740612 2.336315 -0.182962 2.401304 3.435745 0.267359 -2.682048 -0.838801 0.000000 0.000000 0.000000 
1150.333618 -76.572266 1119.113037 15.065765 0.549287 1.826222 -0.048231 2.413356 2.206627 -0.052621 -0.236995 -0.389981 -0.014785 0.578103 0.400473 -0.499535 -9.125093 3.098005 0.000000 0.000000 0.000000 3.700162 -1.985009 4.116005 10.425916 -0.536438 -2.108760 179.040659 38.235876 179.884519 0.000000 0.000000 0.000000 -6.638566 17.240811 -1.142284 -20.518047 4.345023 1.275608 51.896949 -19.875018 115.204323 0.000000 0.000000 0.000000 -8.750435 3.387350 -5.346714 -8.409869 -2.172471 0.519118 -8.238277 -3.777270 -2.377673 0.000000 0.000000 0.000000 -0.252382 -2.774470 2.326118 -0.188561 2.413798 3.464617 0.264136 -2.681172 -0.839970 0.000000 0.000000 0.000000 
1150.081665 -76.600357 1119.140015 15.084841 0.560788 1.821894 -0.056593 2.455810 2.191954 -0.056390 -0.242160 -0.387405 -0.019559 0.587188 0.399166 -0.488827 -9.070359 3.068844 0.000000 0.000000 0.000000 3.712629 -2.021736 4.098617 10.268863 -0.498308 -2.095815 178.947100 38.161061 179.851560 0.000000 0.000000 0.000000 -6.654691 17.312875 -1.133375 -20.662277 4.348572 1.291963 51.617357 -19.951615 115.331154 0.000000 0.000000 0.000000 -8.754469 3.354988 -5.338868 -8.416460 -2.159550 0.517347 -8.244210 -3.774946 -2.381364 0.000000 0.000000 0.000000 -0.260599 -2.824104 2.308568 -0.197777 2.451746 3.502963 0.260199 -2.688995 -0.844588 0.000000 0.000000 0.000000 
